<?xml version="1.0" encoding="UTF-8" standalone="no"?>
<!-- Created with Inkscape (http://www.inkscape.org/) -->

<svg
   width="210mm"
   height="297mm"
   viewBox="0 0 210 297"
   version="1.1"
   id="svg5"
   inkscape:version="1.2.1 (8a69933317, 2022-10-28, custom)"
   sodipodi:docname="logo_mn.svg"
   xmlns:inkscape="http://www.inkscape.org/namespaces/inkscape"
   xmlns:sodipodi="http://sodipodi.sourceforge.net/DTD/sodipodi-0.dtd"
   xmlns="http://www.w3.org/2000/svg"
   xmlns:svg="http://www.w3.org/2000/svg">
  <sodipodi:namedview
     id="namedview7"
     pagecolor="#ffffff"
     bordercolor="#000000"
     borderopacity="0.25"
     inkscape:showpageshadow="2"
     inkscape:pageopacity="0.0"
     inkscape:pagecheckerboard="0"
     inkscape:deskcolor="#d1d1d1"
     inkscape:document-units="mm"
     showgrid="false"
     inkscape:zoom="0.75722503"
     inkscape:cx="-67.351181"
     inkscape:cy="563.24076"
     inkscape:window-width="1920"
     inkscape:window-height="1016"
     inkscape:window-x="0"
     inkscape:window-y="27"
     inkscape:window-maximized="1"
     inkscape:current-layer="layer3" />
  <defs
     id="defs2">
    <inkscape:path-effect
       effect="perspective-envelope"
       up_left_point="85,84.33"
       up_right_point="120,84.326045"
       down_left_point="75,155.59198"
       down_right_point="130,155.59198"
       id="path-effect3452"
       is_visible="true"
       lpeversion="1"
       deform_type="perspective"
       horizontal_mirror="false"
       vertical_mirror="false"
       overflow_perspective="false" />
    <inkscape:path-effect
       effect="fillet_chamfer"
       id="path-effect3175"
       is_visible="true"
       lpeversion="1"
       nodesatellites_param="F,0,0,1,0,2.38125,0,1 @ F,0,0,1,0,2.38125,0,1 @ F,0,0,1,0,2.38125,0,1 @ F,0,0,1,0,2.38125,0,1"
       unit="px"
       method="auto"
       mode="F"
       radius="9"
       chamfer_steps="1"
       flexible="false"
       use_knot_distance="true"
       apply_no_radius="true"
       apply_with_radius="true"
       only_selected="false"
       hide_knots="false" />
    <linearGradient
       id="linearGradient1719"
       inkscape:swatch="solid">
      <stop
         style="stop-color:#000000;stop-opacity:1;"
         offset="0"
         id="stop1717" />
    </linearGradient>
    <inkscape:path-effect
       effect="fill_between_many"
       method="originald"
       linkedpaths="#path212,0,1|"
       id="path-effect377" />
  </defs>
  <g
     inkscape:label="Layer 1"
     inkscape:groupmode="layer"
     id="layer1">
    <path
       inkscape:original-d="M 0,0"
       inkscape:path-effect="#path-effect377"
       d="m 100,50 -50,70 50,130 50,-130 z"
       id="path379"
       class="UnoptimicedTransforms"
       inkscape:label="path379" />
    <path
       style="fill:#ffcc00;stroke-width:0.264583"
       d="m 100,50 -50,70 50,130 50,-130 z"
       id="path212"
       sodipodi:nodetypes="ccccc"
       class="UnoptimicedTransforms"
       inkscape:label="path212" />
  </g>
  <g
     inkscape:groupmode="layer"
     id="layer2"
     inkscape:label="Layer 2"
     style="display:inline">
    <path
       id="path212-3"
       style="fill:none;stroke-width:2.22222222;stroke:#000000;stroke-opacity:1;stroke-dasharray:none;stroke-linejoin:bevel;stroke-linecap:round"
       class="UnoptimicedTransforms"
       inkscape:label="path212-3"
       d="M 51.516935,122.30651 99.145174,246.1388 c 0.472107,1.22747 1.237546,1.22747 1.709656,0 15.87607,-41.27743 31.75216,-82.55486 47.62823,-123.83229 0.47211,-1.22747 0.23515,-3.09007 -0.52925,-4.16023 -15.52324,-21.732283 -31.04649,-43.464575 -46.56973,-65.196865 -0.7644,-1.07016 -2.003755,-1.07016 -2.768164,-1e-6 -15.523241,21.732291 -31.046482,43.464583 -46.569723,65.196866 -0.764408,1.07016 -1.001365,2.93276 -0.529258,4.16023 z"
       transform="matrix(0.9,0,0,0.9,10,10)"
       inkscape:path-effect="#path-effect3175"
       inkscape:original-d="M 50.662109,120.08398 C 67.108073,162.8431 83.554036,205.60221 100,248.36133 116.44596,205.60221 132.89193,162.8431 149.33789,120.08398 132.89193,97.059896 116.44596,74.035807 100,51.011719 83.554036,74.035807 67.108073,97.059896 50.662109,120.08398 Z" />
    <text
       xml:space="preserve"
       style="font-size:20.3088px;fill:none;stroke:#000000;stroke-width:2.05602;stroke-linecap:round;stroke-linejoin:bevel;stroke-dasharray:none;stroke-opacity:1"
       x="116.89736"
       y="122.25488"
       id="text3231"
       transform="scale(1.0632958,0.94047206)"><tspan
         sodipodi:role="line"
         style="font-style:normal;font-variant:normal;font-weight:normal;font-stretch:normal;font-size:20.3088px;font-family:sans-serif;-inkscape-font-specification:sans-serif;text-align:center;text-anchor:middle;stroke-width:2.05602"
         x="116.89736"
         y="122.25488"
         id="tspan3322" /></text>
  </g>
  <g
     inkscape:groupmode="layer"
     id="layer3"
     inkscape:label="Layer 3">
    <g
       aria-label="We
Are
Here
"
       transform="matrix(0.98118987,0,0,0.91993375,-0.19462689,8.4798773)"
       id="text3352"
       style="font-size:21.9742px;-inkscape-font-specification:sans-serif;text-align:center;text-anchor:middle;fill:none;stroke:#000000;stroke-width:2.22461;stroke-linecap:round;stroke-linejoin:bevel"
       inkscape:label="wearehere"
       inkscape:path-effect="#path-effect3452">
      <path
         d="m 90.487977,84.32938 1.570211,-1.78e-4 1.821251,9.255788 3.004885,-9.256333 1.74728,-1.97e-4 2.309176,9.255836 2.51706,-9.256382 1.57797,-1.78e-4 -2.91781,11.101523 -2.129163,2.03e-4 -2.270912,-9.741181 -3.035164,9.741687 -2.129112,2.03e-4 z"
         id="path3433"
         inkscape:original-d="m 85.374777,84.326045 h 2.188837 l 3.369091,13.540741 3.358361,-13.540741 h 2.435617 l 3.369087,13.540741 3.35837,-13.540741 h 2.19956 l -4.02359,16.019275 H 98.90479 L 95.524969,86.439774 92.11296,100.34532 h -2.725316 z" />
      <path
         d="m 114.04851,90.69214 0.0601,0.682364 -6.88016,7.01e-4 c 0.10043,0.972478 0.44086,1.724318 1.02357,2.247778 0.5926,0.522286 1.39814,0.784909 2.41314,0.784811 0.58794,-5.7e-5 1.15168,-0.0692 1.69041,-0.207228 0.54315,-0.137743 1.07409,-0.343802 1.59204,-0.617549 l 0.11836,1.385108 c -0.53305,0.225625 -1.086,0.398048 -1.65829,0.51686 -0.57328,0.119021 -1.1598,0.178638 -1.75881,0.178695 -1.50032,1.42e-4 -2.70683,-0.420961 -3.61111,-1.255534 -0.8877,-0.824362 -1.34409,-1.923521 -1.37678,-3.283804 -0.0331,-1.377332 0.33413,-2.44889 1.09422,-3.229064 0.75602,-0.77556 1.78969,-1.159907 3.10785,-1.160051 1.18216,-1.29e-4 2.14167,0.345951 2.88459,1.043927 0.75599,0.700803 1.19116,1.667834 1.30086,2.912986 z m -1.51982,-0.405883 c -0.0683,-0.750253 -0.33989,-1.34279 -0.81296,-1.781805 -0.4646,-0.436044 -1.05455,-0.652923 -1.77219,-0.652846 -0.81261,8.7e-5 -1.45451,0.209854 -1.92801,0.631365 -0.4713,0.424284 -0.73109,1.02641 -0.77746,1.81133 z"
         id="path3435"
         inkscape:original-d="m 117.43479,93.84319 v 0.965663 h -9.07723 q 0.12875,2.038622 1.22317,3.111581 1.10515,1.06223 3.06866,1.06223 1.13734,0 2.19957,-0.27897 1.07296,-0.278969 2.12446,-0.836908 v 1.866949 q -1.06223,0.450645 -2.17811,0.686695 -1.11587,0.23605 -2.26394,0.23605 -2.87553,0 -4.56008,-1.673816 -1.67381,-1.673816 -1.67381,-4.527887 0,-2.950637 1.58798,-4.678101 1.59871,-1.738194 4.30256,-1.738194 2.42489,0 3.83047,1.566521 1.4163,1.55579 1.4163,4.238187 z m -1.97424,-0.579397 q -0.0215,-1.620168 -0.91202,-2.585831 -0.87982,-0.965664 -2.33905,-0.965664 -1.65236,0 -2.65021,0.933475 -0.98712,0.933474 -1.13733,2.628749 z" />
      <path
         d="m 92.75248,106.5182 -3.099868,7.39317 5.228097,-3.5e-4 z m -0.896985,-1.86125 2.049959,-1.7e-4 4.725778,15.23575 -2.077384,1.1e-4 -1.153992,-4.20568 -6.482708,4.1e-4 -1.711357,4.2058 -2.106984,1.2e-4 z"
         id="path3437"
         inkscape:original-d="m 90.583993,113.92898 -2.939908,7.97209 h 5.890545 z m -1.223173,-2.13519 h 2.457076 l 6.105136,16.01928 h -2.253214 l -1.459224,-4.10943 h -7.221013 l -1.459225,4.10943 h -2.285402 z" />
      <path
         d="m 106.83946,109.86978 c -0.19494,-0.11883 -0.40723,-0.20452 -0.63698,-0.2572 -0.22357,-0.0592 -0.47099,-0.0888 -0.7424,-0.0888 -0.96227,7e-5 -1.69966,0.3363 -2.21562,1.01322 -0.51441,0.67633 -0.77348,1.66133 -0.77373,2.96699 l -0.001,6.38831 -1.8301,1e-4 0.13597,-11.70774 1.69641,-1.2e-4 -3.3e-4,1.70537 c 0.35717,-0.67114 0.81932,-1.16407 1.38702,-1.48228 0.5652,-0.3233 1.2527,-0.48446 2.06434,-0.48452 0.11595,-1e-5 0.24434,0.01 0.3852,0.0289 0.14073,0.0129 0.29701,0.0354 0.46889,0.0676 z"
         id="path3439"
         inkscape:original-d="m 107.13975,117.64142 q -0.33262,-0.19313 -0.72961,-0.27897 -0.38627,-0.0966 -0.85837,-0.0966 -1.67382,0 -2.5751,1.09442 -0.89056,1.08369 -0.89056,3.12231 v 6.33046 h -1.98497 V 115.7959 h 1.98497 v 1.86695 q 0.62232,-1.09442 1.62017,-1.62017 0.99785,-0.53648 2.42489,-0.53648 0.20386,0 0.45064,0.0322 0.24678,0.0215 0.54721,0.0751 z" />
      <path
         d="m 117.43355,113.33684 0.0913,0.93935 -8.07611,5.3e-4 c 0.13731,1.34164 0.55287,2.38127 1.24968,3.10635 0.70938,0.72445 1.66463,1.08914 2.86086,1.08907 0.6929,-4e-5 1.35542,-0.096 1.98641,-0.28763 0.636,-0.19114 1.25535,-0.47697 1.85702,-0.85646 l 0.18172,1.92316 c -0.62195,0.3139 -1.26931,0.55391 -1.94129,0.71934 -0.67337,0.16577 -1.36414,0.2488 -2.07127,0.24884 -1.77113,10e-5 -3.2043,-0.58649 -4.28762,-1.74699 -1.06123,-1.14379 -1.61773,-2.66493 -1.67978,-4.54131 -0.0626,-1.89305 0.34849,-3.36107 1.22279,-4.42727 0.86786,-1.05773 2.06614,-1.58108 3.60401,-1.5812 1.37921,-10e-5 2.50795,0.47123 3.39466,1.42304 0.90371,0.95743 1.44158,2.28144 1.60767,3.99118 z m -1.79374,-0.55804 c -0.10088,-1.02975 -0.4351,-1.84161 -1.00028,-2.44232 -0.55456,-0.59596 -1.24943,-0.89215 -2.08791,-0.89209 -0.94946,7e-5 -1.69493,0.28647 -2.23954,0.86249 -0.54258,0.58045 -0.83465,1.40535 -0.87347,2.48265 z"
         id="path3441"
         inkscape:original-d="m 119.00668,121.31094 v 0.96566 h -9.07724 q 0.12876,2.03862 1.22318,3.11158 1.10514,1.06223 3.06866,1.06223 1.13733,0 2.19956,-0.27897 1.07296,-0.27897 2.12446,-0.8369 v 1.86694 q -1.06223,0.45065 -2.1781,0.6867 -1.11588,0.23605 -2.26395,0.23605 -2.87553,0 -4.56007,-1.67382 -1.67382,-1.67381 -1.67382,-4.52788 0,-2.95064 1.58798,-4.6781 1.59871,-1.7382 4.30257,-1.7382 2.42488,0 3.83046,1.56652 1.41631,1.55579 1.41631,4.23819 z m -1.97425,-0.5794 q -0.0215,-1.62017 -0.91201,-2.58583 -0.87983,-0.96566 -2.33905,-0.96566 -1.65236,0 -2.65021,0.93347 -0.98713,0.93348 -1.13734,2.62875 z" />
      <path
         d="m 78.183946,132.90255 2.160314,-7e-5 -1.081843,8.46111 8.233264,-1.9e-4 0.698558,-8.46121 2.160383,-8e-5 -1.556215,22.20215 -2.437173,0 0.92813,-11.24186 -8.346466,1.5e-4 -1.437373,11.24171 -2.437085,1e-5 z"
         id="path3443"
         inkscape:original-d="m 77.72458,139.26154 h 2.167377 v 6.56651 h 7.875519 v -6.56651 h 2.167377 v 16.01928 h -2.167377 v -7.62874 h -7.875519 v 7.62874 H 77.72458 Z" />
      <path
         d="m 104.98202,145.44023 0.0183,1.37439 -9.774728,1.3e-4 c 0.01688,1.9691 0.405398,3.49992 1.17169,4.57018 0.783178,1.07146 1.906126,1.61168 3.362265,1.61168 0.843453,0 1.659853,-0.14218 2.447463,-0.42591 0.79322,-0.28289 1.57527,-0.70568 2.34451,-1.26652 l 0.0305,2.84845 c -0.78937,0.4663 -1.60292,0.82308 -2.43939,1.06913 -0.83857,0.24666 -1.69006,0.37022 -2.552895,0.37022 -2.161105,0 -3.844436,-0.87282 -5.034034,-2.59535 -1.160885,-1.69236 -1.662369,-3.93481 -1.52274,-6.68812 0.140151,-2.76358 0.801874,-4.8969 1.973148,-6.44094 1.159234,-1.52739 2.654203,-2.28144 4.499582,-2.2815 1.654999,-4e-5 2.962029,0.67919 3.932149,2.05337 0.99255,1.38586 1.51088,3.3082 1.54416,5.80079 z m -2.11199,-0.81495 c -0.0181,-1.50037 -0.33924,-2.68032 -0.95907,-3.55176 -0.60654,-0.86313 -1.41175,-1.29162 -2.419963,-1.29159 -1.141648,2e-5 -2.068835,0.41423 -2.786502,1.24836 -0.716828,0.84187 -1.159738,2.04059 -1.325834,3.61015 z"
         id="path3445"
         inkscape:original-d="m 104.44126,148.77869 v 0.96566 h -9.077236 q 0.128756,2.03862 1.223174,3.11158 1.105147,1.06223 3.068662,1.06223 1.13734,0 2.19957,-0.27897 1.07296,-0.27897 2.12445,-0.83691 v 1.86695 q -1.06222,0.45065 -2.1781,0.6867 -1.11588,0.23605 -2.263945,0.23605 -2.87553,0 -4.560076,-1.67382 -1.673816,-1.67381 -1.673816,-4.52788 0,-2.95064 1.58798,-4.67811 1.598708,-1.73819 4.302565,-1.73819 2.424892,0 3.830462,1.56652 1.41631,1.55579 1.41631,4.23819 z m -1.97425,-0.5794 q -0.0215,-1.62017 -0.91201,-2.58583 -0.87983,-0.96566 -2.339053,-0.96566 -1.652357,0 -2.650208,0.93347 -0.987123,0.93348 -1.137337,2.62875 z" />
      <path
         d="m 115.52621,140.39636 c -0.24279,-0.172 -0.50407,-0.29601 -0.78403,-0.37225 -0.27295,-0.0857 -0.57253,-0.12853 -0.89893,-0.12852 -1.15726,3e-5 -2.02238,0.48647 -2.60002,1.46724 -0.57686,0.98169 -0.82731,2.41469 -0.74541,4.32013 l 0.40492,9.42123 -2.23222,0 -0.54102,-17.14218 2.03647,-6e-5 0.10587,2.4632 c 0.38749,-0.9707 0.91169,-1.68253 1.57318,-2.14151 0.65758,-0.46593 1.47208,-0.698 2.44608,-0.69803 0.13914,0 0.29388,0.0139 0.46424,0.0417 0.16977,0.0186 0.35888,0.051 0.56738,0.0974 z"
         id="path3447"
         inkscape:original-d="m 114.6451,145.10917 q -0.33262,-0.19313 -0.72961,-0.27897 -0.38627,-0.0966 -0.85837,-0.0966 -1.67382,0 -2.5751,1.09442 -0.89056,1.08369 -0.89056,3.12231 v 6.33046 h -1.98497 v -12.01714 h 1.98497 v 1.86695 q 0.62232,-1.09442 1.62017,-1.62017 0.99785,-0.53648 2.42489,-0.53648 0.20386,0 0.45064,0.0322 0.24678,0.0215 0.54721,0.0751 z" />
      <path
         d="m 128.57546,145.43985 0.19286,1.37444 -9.77546,1.3e-4 c 0.26689,1.96917 0.84981,3.50005 1.75204,4.57035 0.91929,1.07149 2.11092,1.61174 3.56717,1.61174 0.84352,-1e-5 1.64192,-0.14219 2.39357,-0.42592 0.75737,-0.28291 1.4858,-0.70571 2.18389,-1.26657 l 0.39215,2.84855 c -0.73024,0.46633 -1.49856,0.82312 -2.30384,1.06917 -0.80732,0.24667 -1.64319,0.37024 -2.50609,0.37024 -2.16128,0 -3.95556,-0.87286 -5.36396,-2.59545 -1.37585,-1.69242 -2.1621,-3.93496 -2.37204,-6.68837 -0.21073,-2.76368 0.18018,-4.89707 1.1555,-6.44116 0.9654,-1.52744 2.36473,-2.28152 4.21024,-2.28157 1.65511,-5e-5 3.04849,0.6792 4.19317,2.05343 1.16858,1.3859 1.93103,3.30832 2.2808,5.80099 z m -2.21562,-0.81498 c -0.20863,-1.50042 -0.67959,-2.68041 -1.41012,-3.55188 -0.71617,-0.86316 -1.57585,-1.29166 -2.58414,-1.29164 -1.14172,3e-5 -2.01639,0.41425 -2.62821,1.24841 -0.60999,0.8419 -0.90073,2.04065 -0.86755,3.61027 z"
         id="path3449"
         inkscape:original-d="m 126.51202,148.77869 v 0.96566 h -9.07723 q 0.12876,2.03862 1.22317,3.11158 1.10515,1.06223 3.06867,1.06223 1.13733,0 2.19956,-0.27897 1.07296,-0.27897 2.12446,-0.83691 v 1.86695 q -1.06223,0.45065 -2.17811,0.6867 -1.11587,0.23605 -2.26394,0.23605 -2.87553,0 -4.56007,-1.67382 -1.67382,-1.67381 -1.67382,-4.52788 0,-2.95064 1.58798,-4.67811 1.59871,-1.73819 4.30256,-1.73819 2.42489,0 3.83047,1.56652 1.4163,1.55579 1.4163,4.23819 z m -1.97424,-0.5794 q -0.0215,-1.62017 -0.91202,-2.58583 -0.87982,-0.96566 -2.33905,-0.96566 -1.65235,0 -2.65021,0.93347 -0.98712,0.93348 -1.13733,2.62875 z" />
    </g>
    <text
       xml:space="preserve"
       style="font-style:normal;font-variant:normal;font-weight:normal;font-stretch:normal;font-size:21.9742px;font-family:sans-serif;-inkscape-font-specification:sans-serif;text-align:center;text-anchor:middle;display:none;fill:none;stroke:#000000;stroke-width:2.22461;stroke-linecap:round;stroke-linejoin:bevel;stroke-dasharray:none;stroke-opacity:1"
       x="157.94612"
       y="192.89357"
       id="text3352-5"
       transform="scale(0.9792566,1.0211828)"
       inkscape:label="wearehere_backup"><tspan
         sodipodi:role="line"
         id="tspan3350-9"
         style="stroke-width:2.22461"
         x="157.94612"
         y="192.89357">We</tspan><tspan
         sodipodi:role="line"
         style="stroke-width:2.22461"
         x="157.94612"
         y="220.36131"
         id="tspan3354-8">Are</tspan><tspan
         sodipodi:role="line"
         style="stroke-width:2.22461"
         x="157.94612"
         y="247.82907"
         id="tspan3356-4">Here</tspan><tspan
         sodipodi:role="line"
         style="stroke-width:2.22461"
         x="157.94612"
         y="275.29681"
         id="tspan3358-8" /></text>
  </g>
</svg>
